# xmcd
#
# Track frame offsets: 
#        150
#        9198
#        22704
#        24264
#        24605
#        33800
#        35193
#        43205
#        44991
#        57891
#        58214
#        59653
#        67210
#        74923
#        80342
#        81985
#        91296
#        94718
#        104926
#        108213
#        116731
#        117502
#        127110
#        127725
#        128040
#        139912
#        140285
#        141060
#
# Disc length: 1985 seconds
#
# Revision: 0
# Processed by: cddbd v1.5.2PL0 Copyright (c) Steve Scherf et al.
# Submitted via: ExactAudioCopy v0.95b3
#
DISCID=a307bf1c
DTITLE=The Beatles  - Way Beyond Compare - Episode 18 Pop Out Goes The
DTITLE=Beatles 1 and 3 (21 May-1 June 1963)  FLAC
DYEAR=1900
DGENRE=
TTITLE0=Please Please Me
TTITLE1=I Saw Her Standing There
TTITLE2=Pop Go The Beatles [Short-Version] [BBC-Radio]
TTITLE3='One They Didn't Pen Themselves'
TTITLE4=Everybody's Trying To Be My Baby
TTITLE5='Just Get Your Guitar And Strum It'
TTITLE6=Do You Want To Know A Secret
TTITLE7='We Got The Box, Harry'
TTITLE8=You Really Got A Hold On Me
TTITLE9='A Very Good Imitation'
TTITLE10='The Plastic Gets In The Way'
TTITLE11=The Hippy Hippy Shake
TTITLE12=Misery
TTITLE13=Pop Go The Beatles [Longest-Version] [BBC-Radio]
TTITLE14='All's Right With The World'
TTITLE15=A Shot Of Rhythm And Blues
TTITLE16='Better Cut Down On The Jelly Babies'
TTITLE17=Memphis
TTITLE18='Happy Birthday To Paul'
TTITLE19=A Taste Of Honey
TTITLE20='Fingering Practice Shows Dividends'
TTITLE21=Sure To Fall
TTITLE22='More For The Joy Of Living'
TTITLE23=Outro
TTITLE24=Money (That's What I Want)
TTITLE25='An Eye On The Pounds'
TTITLE26='But We Promised'
TTITLE27=From Me To You
EXTD=
EXTT0=
EXTT1=
EXTT2=
EXTT3=
EXTT4=
EXTT5=
EXTT6=
EXTT7=
EXTT8=
EXTT9=
EXTT10=
EXTT11=
EXTT12=
EXTT13=
EXTT14=
EXTT15=
EXTT16=
EXTT17=
EXTT18=
EXTT19=
EXTT20=
EXTT21=
EXTT22=
EXTT23=
EXTT24=
EXTT25=
EXTT26=
EXTT27=
PLAYORDER=
